<mxfile host="app.diagrams.net" modified="2023-08-30T04:34:22.110Z" agent="Mozilla/5.0 (Macintosh; Intel Mac OS X 10_15_7) AppleWebKit/537.36 (KHTML, like Gecko) Chrome/115.0.0.0 Safari/537.36" etag="AUkWrw3mpXaHcLN0lXwd" version="21.7.0" type="device">
  <diagram name="ページ1" id="b0s1LM1IYe-g2g-scR6n">
    <mxGraphModel dx="908" dy="924" grid="1" gridSize="10" guides="1" tooltips="1" connect="1" arrows="1" fold="1" page="1" pageScale="1" pageWidth="827" pageHeight="1169" math="0" shadow="0">
      <root>
        <mxCell id="0" />
        <mxCell id="1" parent="0" />
        <mxCell id="RdqZKoxWCrRREyARUR0J-1" value="" style="ellipse;html=1;shape=startState;fillColor=#000000;strokeColor=#ff0000;" parent="1" vertex="1">
          <mxGeometry x="40" y="170" width="60" height="60" as="geometry" />
        </mxCell>
        <mxCell id="RdqZKoxWCrRREyARUR0J-3" value="ユーザー_ログアウト" style="text;align=center;fontStyle=1;verticalAlign=middle;spacingLeft=3;spacingRight=3;strokeColor=none;rotatable=0;points=[[0,0.5],[1,0.5]];portConstraint=eastwest;html=1;fontSize=15;" parent="1" vertex="1">
          <mxGeometry x="40" y="70" width="120" height="50" as="geometry" />
        </mxCell>
        <mxCell id="RdqZKoxWCrRREyARUR0J-5" value="ユーザー" style="text;align=center;fontStyle=1;verticalAlign=middle;spacingLeft=3;spacingRight=3;strokeColor=none;rotatable=0;points=[[0,0.5],[1,0.5]];portConstraint=eastwest;html=1;" parent="1" vertex="1">
          <mxGeometry x="30" y="240" width="80" height="26" as="geometry" />
        </mxCell>
        <mxCell id="RdqZKoxWCrRREyARUR0J-6" value="" style="endArrow=classic;endFill=1;html=1;rounded=0;" parent="1" target="RdqZKoxWCrRREyARUR0J-7" edge="1">
          <mxGeometry width="160" relative="1" as="geometry">
            <mxPoint x="100" y="199.5" as="sourcePoint" />
            <mxPoint x="190" y="200" as="targetPoint" />
          </mxGeometry>
        </mxCell>
        <mxCell id="RdqZKoxWCrRREyARUR0J-7" value="ユーザー&lt;br&gt;ログイン画面" style="html=1;whiteSpace=wrap;" parent="1" vertex="1">
          <mxGeometry x="180" y="175" width="110" height="50" as="geometry" />
        </mxCell>
        <mxCell id="RdqZKoxWCrRREyARUR0J-8" value="" style="endArrow=classic;endFill=1;html=1;rounded=0;" parent="1" edge="1">
          <mxGeometry width="160" relative="1" as="geometry">
            <mxPoint x="290" y="199.5" as="sourcePoint" />
            <mxPoint x="370" y="200" as="targetPoint" />
          </mxGeometry>
        </mxCell>
        <mxCell id="RdqZKoxWCrRREyARUR0J-9" value="講座一覧画面" style="html=1;whiteSpace=wrap;" parent="1" vertex="1">
          <mxGeometry x="370" y="175" width="110" height="50" as="geometry" />
        </mxCell>
        <mxCell id="RdqZKoxWCrRREyARUR0J-10" value="" style="endArrow=classic;endFill=1;html=1;rounded=0;" parent="1" edge="1">
          <mxGeometry width="160" relative="1" as="geometry">
            <mxPoint x="480" y="199.5" as="sourcePoint" />
            <mxPoint x="600" y="200" as="targetPoint" />
          </mxGeometry>
        </mxCell>
        <mxCell id="RdqZKoxWCrRREyARUR0J-12" value="ユーザー&lt;br&gt;ログイン" style="text;align=center;fontStyle=0;verticalAlign=middle;spacingLeft=3;spacingRight=3;strokeColor=none;rotatable=0;points=[[0,0.5],[1,0.5]];portConstraint=eastwest;html=1;" parent="1" vertex="1">
          <mxGeometry x="290" y="170" width="80" height="26" as="geometry" />
        </mxCell>
        <mxCell id="RdqZKoxWCrRREyARUR0J-13" value="" style="ellipse;html=1;shape=endState;fillColor=#000000;strokeColor=#ff0000;" parent="1" vertex="1">
          <mxGeometry x="610" y="172.5" width="60" height="55" as="geometry" />
        </mxCell>
        <mxCell id="RdqZKoxWCrRREyARUR0J-14" value="[ログアウト]&lt;br&gt;をクリック" style="text;align=center;fontStyle=0;verticalAlign=middle;spacingLeft=3;spacingRight=3;strokeColor=none;rotatable=0;points=[[0,0.5],[1,0.5]];portConstraint=eastwest;html=1;" parent="1" vertex="1">
          <mxGeometry x="490" y="170" width="80" height="26" as="geometry" />
        </mxCell>
        <mxCell id="RdqZKoxWCrRREyARUR0J-15" value="ゲストとして&lt;br&gt;講座一覧画面に戻る" style="text;align=center;fontStyle=0;verticalAlign=middle;spacingLeft=3;spacingRight=3;strokeColor=none;rotatable=0;points=[[0,0.5],[1,0.5]];portConstraint=eastwest;html=1;" parent="1" vertex="1">
          <mxGeometry x="600" y="240" width="80" height="26" as="geometry" />
        </mxCell>
      </root>
    </mxGraphModel>
  </diagram>
</mxfile>
